<svg xmlns="http://www.w3.org/2000/svg" width="32" height="28.001" enable-background="new 0 0 32 28.001" viewBox="0 0 32 28.001" id="nike-air-mag"><path fill="#e6e6e6" d="M15,16c0,0-2-1.999-2-2.999C13,12,13,8,13,8c0-6,0-8-2-8C8,0,6,5.001,3,5.001c-1,0-2,0-2,0.999
			c0,1.001,0,2,0,2h7v8H15z"></path><path fill="#b3b3b3" d="M21,19.001c-3-1-5-2-6-3.001c-1-0.999-2-1.999-3-1.999c-2,0-3,0-3-1c0-1.001,4-1.001,4-2V8
			c0,0-2,0-2-0.999c0-3.001,0-4-1-4s-4,4-6,4H1V8l1,7.001V16v10.001h23l6-2v-2C31,20.001,24,20.001,21,19.001z"></path><path fill="#e6e6e6" d="M12,17.001c0,1,0,2-1,2c-2,0-8-2-8-2v1l5,2c0,0,3,1,4,1c0.5,0,2,0,2-1
			C14,18.501,12,17.001,12,17.001z"></path><path fill="#e6e6e6" fill-rule="evenodd" d="M13,10.001H6c0-0.38,0-0.729,0-1C6,8,3,8,2,8S1,9.001,1,9.001
			s-1,1-1,2c0,0.999,1,2,1,2s0,1,1,1s4,0,4-1C6,12.729,6,12.38,6,12h7c0.552,0,1-0.447,1-0.999C14,10.448,13.552,10.001,13,10.001z" clip-rule="evenodd"></path><path fill="#999" d="M31,22.001c0,0-2,2.999-7,2.999c-1,0-3-1.999-4-1.999h-2c0,0-2.056-1-4-1c-3,0-4,0-4,0s-1,0-1-1
			c0,0-0.071-0.629-1-1l-5-2v-1C3,16,2,16,2,16s-2,4.001-2,6.001C0,25,2,25,2,25v1.001c0,1,1,2,3,2h16c2,0,11-1,11-4
			C32,22.001,31,22.001,31,22.001z"></path><circle cx="9" cy="7" r="1" fill="#fff"></circle><path fill="#b3b3b3" fill-rule="evenodd" d="M5,28.001h8c0,0-3-3.001-4-3.001C7,25,5,28.001,5,28.001z
			 M16,25c-1,0-3,3.001-3,3.001h7C20,28.001,18,25,16,25z" clip-rule="evenodd"></path></svg>